<svg width="36mm" height="26mm" version="1.1" viewBox="0 0 36 26" xml:space="preserve" xmlns="http://www.w3.org/2000/svg"><g transform="matrix(1.0772 0 0 1.056 -1.2369 -1.2108)" stroke-width=".078119"><path d="M18.764 24.912c-.888-.607-2.57-1.6-1.058-2.567a21.61 21.61 0 0 0 3.262-4.843c1.025-.182 2.112 1.842 3.556 1.76 2.022.39 4.429-.33 5.428-2.242 1.23-.399 2.696.543 3.976.806 1.013.82-.952 2.336-1.527 3.155-2.553 2.557-6.596 3.017-9.95 2.052-1.34.023-2.042 2.804-3.4 2.064l-.14-.089zM8.232 23.364c-2.705-.333-5.518-1.746-6.596-4.39-.862-1.493 1.873-1.208 2.743-1.692 1.838-1.137 1.849 1.756 3.595 1.831 1.03.528 2.522-.14 3.356.133-.62 1.384-1.205 2.797-1.901 4.146-.387.112-.807-.002-1.198-.028zm3.589-.21c.464-.88.77-2.795 1.66-2.847.847 1.015 1.725 2.363-.195 2.627-.42.07-1.157.584-1.464.22zm3.956-1.534c-1.22-1.287-1.446-3.11-1.195-4.795.157-2.224 1.045-4.29 1.973-6.285-.708-.534-3.078-.378-1.75-1.768 1.858-3.3 5.041-5.618 8.473-7.08.838-.585 1.207-.067.382.527-2.203 2.646-4.136 5.567-5.472 8.75-.733 1.822-.716 3.878-.336 5.779.775 1.327 1.083 2.7-.282 3.791-.488.414-1.13 2.034-1.792 1.08zm3.417-4.377c-1.174-2.665-.25-5.693 1.109-8.1.77-1.095 1.065-2.899 2.624-3.106 3.513-.8 7.736-.148 10.06 2.85.51.752 2.175 2.645.517 2.922-1.367.08-3.513 1.865-3.98-.214-1.998-2.623-6.784-2.284-8.152.808-.79 1.675-.822 3.67-1.88 5.226-.166-.067-.216-.25-.296-.387zM7.364 15.006c-1.951-.407-4.374-1.014-5.028-3.184-.656-1.99.51-4.21 2.396-5.027 1.4-.706 2.99-.999 4.547-1.044-.107 1.123-.676 2.74-1.52 3.632-1.64.86-.192 2.604 1.194 2.501 1.04.352 3.282-.27 2.395 1.51-.302 1.37-2.423.73-3.357 1.677-.213.03-.423-.018-.629-.064zm3.643-5.634c-1.496-.27.395-2.18.492-3.141.514-.841 2.395.062 1.283 1-.521.696-.516 2.76-1.776 2.142z M18.764 24.912c-.888-.607-2.57-1.6-1.058-2.567a21.61 21.61 0 0 0 3.262-4.843c1.025-.182 2.112 1.842 3.556 1.76 2.022.39 4.429-.33 5.428-2.242 1.23-.399 2.696.543 3.976.806 1.013.82-.952 2.336-1.527 3.155-2.553 2.557-6.596 3.017-9.95 2.052-1.34.023-2.042 2.804-3.4 2.064l-.14-.089zM8.252 23.366c-2.741-.318-5.57-1.768-6.644-4.447-.761-1.45 1.92-1.152 2.771-1.638 1.838-1.137 1.85 1.756 3.596 1.831 1.019.543 2.558-.167 3.35.147-.623 1.281-1.17 2.936-1.89 3.965-.802-.023-1.869-.342-2.401-.337-.432-.084-1.498-.461-2.058-.728-.53-.253-.186-.718-.795-.7-.02.201-.323.478.368.46.21.44.995.444 1.344.765.889.414 1.652.258 2.372.57.813-.053 1.51.269.27.145l-.284-.034zm1.48-3.753c1.303-.203-1.125-.09-1.496-.326-1.027-.236-2.098-.956-2.409-1.777-.595.55.644.663.472 1.048.388-.08.793.655 1.42.804.054.17.746.158 1.158.178.146.375.575.051.853.072zm2.09 3.54c.463-.879.768-2.794 1.66-2.846.846 1.015 1.724 2.363-.197 2.627-.42.07-1.156.584-1.464.22zm3.954-1.533c-1.22-1.287-1.445-3.11-1.194-4.795.155-2.224 1.044-4.29 1.971-6.285-.707-.534-3.078-.378-1.75-1.769 1.858-3.297 5.042-5.616 8.473-7.077.838-.586 1.207-.068.383.526-2.205 2.646-4.137 5.567-5.474 8.75-.733 1.822-.715 3.878-.335 5.779.776 1.327 1.084 2.7-.281 3.791-.49.414-1.131 2.034-1.794 1.08zm3.418-4.377c-1.175-2.665-.251-5.693 1.108-8.1.77-1.095 1.066-2.899 2.625-3.106 3.513-.8 7.736-.148 10.06 2.85.51.752 2.174 2.645.516 2.922-1.367.08-3.513 1.865-3.98-.214-1.997-2.623-6.784-2.284-8.15.808-.792 1.675-.824 3.67-1.883 5.226-.165-.067-.215-.25-.296-.387zm.504-.193c.47-1.126.72-1.89.948-2.948 0-1.055-.296.822-.537.711.223.857-.414 1.334-.481 1.92-.091-.202-.087.912-.3.068.29.043-.599-.066.129.617l.096-.108.143-.26zM7.364 15.006c-1.937-.394-4.348-1.015-5.008-3.156-.651-1.907.376-4.087 2.17-4.942 1.442-.8 3.12-1.104 4.753-1.157.065.913-.907 2.81-1.16 3.247.508-.392.057-1.58.102-.87-.041.534-.222.88-.62 1.13-.899-.243-.859 1.863-.383.41.713-.536.948-.484.107.05-1.15 1.65 1.389 2.3 2.606 2.317 1.03-.029 2.067.097 1.416 1.358-.301 1.37-2.422.732-3.357 1.678-.213.03-.423-.018-.628-.064zm-.394-.297c.658-.26-1.259-.214-1.224-.62-.4.321-1.343-.304-1.137-.443-.435.039-1.244-.553-1.07-.315.38.415 1.596 1.044 1.695.855.453.29 1.185.527 1.735.522zM3.264 13.01c.557-.222-.91-.53-.631-1.282.484-.091-.135-.275-.162-.264-.048-.708-.166-1.853.265-2.037-.329-.23.704-.868.377-1.184-.62.82-.945 1.828-.788 2.925-.012.654.636 1.826.94 1.843zm.17-4.697c.155-.59.936-.268.504-.73a7.637 7.637 0 0 1 2.066-1.011c.38-.24.429-.048.7-.106.307-.262 1.297.11.594-.224.317-.2 1.174.16 1.53-.175.874.406-.189-.55-.744-.096-1.71.172-3.419.756-4.7 1.93-.461-.028.1.63.05.413zm7.573 1.06c-1.496-.272.395-2.18.492-3.142.514-.841 2.395.062 1.283 1-.52.696-.516 2.76-1.776 2.142zm1.046-.647c.225-.756.547-1.515.832-2.188.234-.526-.392.502-.18-.33-1.022-.496-.371.347-.146.127.352.55-.63 1.264-.452 1.856-.172.344-.15.683-.67 1.01-.684.052-.508-.372-.512-.768.055-.738-1.034 1.14.302.882.61.282.637-.153.825-.588z M19.273 25.222c-.989-.647-3.194-1.766-1.49-2.93a23.143 23.143 0 0 0 3.338-5.014c1.184.92 2.404 2.046 4.002 2.077 1.91.195 3.962-.644 4.9-2.382 1.178-.202 2.59.584 3.833.83 1.142.797-.872 2.353-1.44 3.157-2.64 2.635-6.78 3.01-10.227 2.03-1.062.448-1.76 2.412-2.915 2.232zm-9.818-1.979c-.58-.317-2.197.145-1.025-.487.45.341 1.217-.273 1.088.322.494-.769.556-1.911.62-2.311.491 0-.257 1.275.239.326.54-1.265-1.16-.947-.43.167.064.367-.272 1.412-.527.99.268-.678.268-2.09-.028-2.135.53-.228 1.226.03 1.314.247.716-.904-1.681-.264-.284-.793.739-.265-.787.009-1.16-.134-.84.198-1.642-.298-2.55-.804-.259-.01.237.672-.45.188.364-.55-.468-1.02-.467-1.383-.221.291-.493.17-.205.45-.022.139.189.49-.342-.107-1.213-.42-.04-.168.09-.434.035-.374-1.407.279-1.99.315-.553.247-2.084.331-.631.489 1.3-.037-1.046.31-.94-.068-.426.535 1.137.64.022.635-.632-.564.462 1.176.43.277.968.251.316 1.564.78 1.853.257-.4.182-.193.452-.122.099.665.751-.308.54-.522.711.854-.263 1.167-.894.737 1.003.92-.99-.688-1.11-1.285-.651-.77-.832-1.967.536-1.88 1.14-.017 2.979-1.528 3.59-.05.945 1.68 3.194 1.823 4.879 1.421.715.368-.709 1.78-.802 2.563-.238.48-.466 1.2-.745 1.533zm2.397-.056c.399-.863.75-2.917 1.654-2.876.454.958 1.919 2.177.07 2.492-.52.138-1.236.635-1.724.385zm3.872-1.65c-1.135-1.194-1.315-2.853-1.145-4.418.088-2.262.916-4.404 1.926-6.4-.136-.817-3.206-.46-1.644-2.023 2.008-3.45 5.43-5.897 9.134-7.254.074.71-1.58 2.033-2.056 2.973-1.746 2.464-3.532 5.062-4.194 8.054-.324 2.03-.223 4.21.833 6.026-.07 1.274-1.334 2.45-2.223 3.387-.243.311-.469-.237-.633-.345zm3.56-4.139c-.75-1.425-.631-3.116-.413-4.655.568-2.249 1.715-4.3 2.994-6.214 1.163-.761 2.68-.758 4.033-.793 2.786.002 5.64 1.125 7.31 3.432.58.829 1.908 2.632.018 2.709-1.138.037-3.046 1.587-3.52-.006-1.808-2.945-6.962-2.67-8.347.546-.805 1.645-.83 3.622-1.882 5.152l-.09-.05-.103-.124zm.415-.348c.463-1.16.77-1.92.926-3.038.106-.6-.364-1.496-.48-2.225-.21-.876-.004 2.047-.416.466-.1-.95.167-1.09.038-1.477-.491.484-.531 1.784-.745 1.862.337.559-.595 1.082-.216 1.93-.093 1.015.25 1.495.265 1.921.124.285.29 1.498.627.56zM7.088 14.93c-1.981-.367-4.363-1.234-4.825-3.466-.471-2.084.976-4.119 2.89-4.843 1.302-.545 2.74-.882 4.148-.825.04.604-.74 2.342-.442.9-.381.354-1.063 1.977-.672.48-.131-.854 1.706-.474.258-.791-1.03.12-.887-.407.075-.138.572.152.981-.37.141-.328-1.227-.008-2.37.457-3.358.75-.257.327-1.083.33-1.141.915.719.08 1.126.234.053.187-.18-.784-.805.11-.957.485-.124.462.694-.596.863 0-.655.074-.775 1.375-1.435.593.057.356-.347.593.211.375-.3.844-.114 1.625-.375 2.418.107 1.016.074-.232.298.135.956-.88.869 1.17.228 1.094.312.77.274-.627.39.37.281.529.905-.002.258-.476.87.309.923.81.216.872.51.436 1.35.526 1.471.731.127-.453.455.322.944.265.53.24 1.072-.11.82.208 1.146.236.654-.067.438-.346.362.177 1.286-.15.565-.458.52.114.584.097.83-.13-.293.77.38.24.352.27.817.094 2.401-.05 1.78-1.317.328-.146.42-.86-.342-.676 1.347-.34.64 2.513-.557 2.045-1.172-.022-1.952 1.232-3.121.7zm-.16-3.47c-.658-.139.28-.164-.264-.592.552-.545-.397-.148.17-1.104-.696-.196.876-.774-.113-1.115-.064-1.132 2.003.886.824.41.071.03-.454.598-.535.206-.288 1.02 1.389-.51.255.477-.284-.008-.47.49-.374.594.284-.271-.303.888.257.695.764.787-.324-.18-.105.469.398-.528-.014.469-.114-.04zm4.3-2.053c-1.814-.17.178-2.144.248-3.11.514-.953 2.262.018 1.26.995-.502.655-.522 2.594-1.345 1.89-.434-.174-.519.05-.375-.335.223-.155 1.095.816.959-.096.293-.258-.112-.608-.326.001-.522-.57.442-.972.565-.375-.102-.672-.146-.106.263-.765.095-.518.755-1.57.225-1.066.205-.627-.955-.465-.636-.308-.646.363.118-.722-.46.051.255.335-.365.073-.015.637-.14-.484-.637.615-.56.976.296.789-.427.861-.064.28-.487.282-.355.637-.22.57-1.115.534 1.69.675.481.657z M18.853 24.968c-1.093-.662-2.55-1.806-.941-2.828a23.067 23.067 0 0 0 3.212-4.863c1.178.926 2.398 2.036 3.99 2.083 1.91.191 3.977-.642 4.906-2.387 1.295-.05 3.177.442 4.3 1.191-1.183 3.015-4.29 5.05-7.489 5.27-1.605.193-3.212-.083-4.766-.48-.831.784-1.53 1.758-2.5 2.353-.262-.055-.49-.197-.71-.34zm-9.398-1.743c-.625-.238.18-.333.143-.306.322-.646.493-1.347.41-1.483.1-.474.345-.833.318-.269.34-.414.435-1.541.443-1.56.777-.394.04-.164-.462-.18-.56.113-1.67.07-2.364-.108-.31-.182-1.57-.991-1.045-.385-.56-.424-.846.22-.513-.558-.454-.362-.406-1.13-.807-.858.33-.469-.419-.383-1.001-.122.696.213-1.128-.018-1.474.335-.65.103-1.369.522-1.402.4.032.624.15.483-.09.508.271.572.665 1.193.783 1.564.356.194.441.053.493.424.322.428.355.21.58.729-.924-.825-1.838-1.879-2.03-3.13 1.14-.663 2.643-.78 3.935-1.157.943.276 1.19 1.93 2.465 2.014 1.087.585 2.522-.079 3.474.218-.66 1.306-1.204 2.666-1.827 3.99l-.032-.068zm2.405-.005c.311-.945.795-2.668 1.578-2.975.734 1.058 1.872 2.373-.115 2.652-.456.105-1.02.5-1.463.323zm3.864-1.682c-1.168-1.247-1.364-3.01-1.138-4.631.152-2.251 1.022-4.347 1.979-6.358-.636-.514-3.106-.42-1.703-1.847 2.03-3.474 5.502-5.997 9.271-7.276-.49 1.048-1.617 2.068-2.315 3.13-1.733 2.513-3.517 5.153-4.145 8.188-.093 1.852-.226 3.844.792 5.492.473 1.358-1.241 2.428-1.935 3.484-.306.49-.57.11-.806-.182zm3.603-4.066c-.796-1.44-.687-3.16-.457-4.73.57-2.247 1.713-4.3 2.995-6.21 1.722-1.013 3.88-.828 5.798-.641 2.97.4 5.673 2.518 6.62 5.375-.813.896-2.542.854-3.724 1.31-1.109.08-1.138-2.013-2.458-2.193-1.326-.683-2.975-.686-4.366-.208-1.948.717-2.82 2.769-3.15 4.664-.344.777-.506 2.42-1.26 2.634zm.371-.422c.465-1.16.772-1.92.928-3.038.153-.38-.096-1.4-.246-1.426-.063-.53-.075-1.548-.716-1.742-.563.771-.27 1.734-.792 2.359-.172.387-.017.926-.068 1.37-.004 1.345.2 1.376.376 2.314.151.367.255.85.518.163zm-12.61-2.12c-1.98-.368-4.362-1.234-4.823-3.467-.472-2.083.976-4.118 2.89-4.842 1.301-.545 2.74-.882 4.148-.825.053.593-.761 2.352-.427.9-.293.1.58-.467.133-.784-1.087-.057-2.422.342-3.244.583-.838.424-.503.258-1.217.696-.618.153-.643.43-1.086.623-.263.75-.53.419-.75 1.21-.174.065-.7 1.648-.318 2.594.246.553.268.25.35.848.679.606.542.968 1.396 1.063-.693.155 1.3.946 1.43.662.216.457 1.12.564 1.687.5-.587.143 1.004.337.764.168.544.033-.272-.217.642-.48-.46.504.605.067.1-.237.02.053.677.343.44.004.649-.514-.074.502.616-.025.039.054 2.022.055 1.346-1.173.128-.195.474-.931-.4-.763 1.346-.34.64 2.513-.557 2.045-1.172-.023-1.952 1.232-3.122.7zm4.14-5.523c-1.816-.193.204-2.212.29-3.2.777-.882 2.203.325 1.15 1.26-.249.916-1.205 2.547-.637 1.343.054-.652.23-.576.528-1.483.222-.486.577-1.232.145-.783.205-.627-.955-.465-.636-.308-.533.301-.076-.704-.44.158-.342.38.207.537-.303.492-.347.601-.257 1.174-.542 1.403-.493.766.3.09-.288.76.094.21 1.73.428.735.357z M19.165 25.15c-.744-.648-2.95-1.54-1.575-2.608 1.423-1.587 2.605-3.381 3.559-5.28 1.235 1.115 2.703 2.254 4.472 2.116 1.749.07 3.583-.825 4.42-2.397 1.162-.176 2.544.573 3.77.813 1.176.785-.847 2.397-1.47 3.197-2.542 2.502-6.479 2.932-9.803 2.048-1.456-.107-1.961 2.501-3.375 2.112zm-7.26-1.962c.264-.907.718-2.64 1.559-2.874.547.89 1.92 2.265.019 2.503-.489.091-1.143.61-1.578.37zm4.002-1.453c-1.186-1.236-1.616-3.01-1.323-4.678.14-2.28.979-4.435 1.986-6.459-.78-.598-3.126-.557-1.559-2.13 2-3.353 5.374-5.625 8.952-7.022.07.773-1.541 1.918-1.987 2.887-1.977 2.837-4.104 5.864-4.435 9.406-.457 1.924 1.01 3.792.936 5.467-.726.688-1.563 2.99-2.57 2.528zm-8.893-6.837c-1.731-.398-3.786-.972-4.534-2.77.09-.292.441.936.915 1.13.612.25.567.584 1.507.874.299.21.558.082.932.302.685.343 1.398.282 2.178.552-.67-.4.734.014.1-.265.636-.008.93-.507 1.72-.548.646.056-1.45.41-1.677.838-.34.2-.775-.083-1.14-.112zm13.59-.587c.39-.978-.22-2.013-.456-3.1-.984-1.33.777-2.67 1.227-3.934.542-1.304 2.124-1.345 3.326-1.48 3.026-.232 6.352.625 8.272 3.12.448.77 2.154 2.51.583 2.831-1.126.113-2.686 1.255-3.6.583-.75-1.878-2.94-2.688-4.842-2.478-1.95.1-3.632 1.57-4.142 3.434-.102.082-.41 2.059-.366 1.025zM2.414 9.374c.759-2.307 3.363-3.21 5.56-3.493.782-.216 1.926-.207 1.094.873-.429 1.073-.206.207-.165-.133.904-1.272-1.681-.47-2.361-.383-1.03.35-1.582.542-2.396 1.146-.576.16-.658.654-1.187 1.01-.288.517-.335.89-.547.98z" fill="#f9f9f9"/><path d="M19.156 25.144c-.73-.65-2.928-1.535-1.573-2.59 1.427-1.59 2.61-3.39 3.567-5.292 1.236 1.114 2.704 2.253 4.473 2.116 1.749.07 3.582-.825 4.419-2.397 1.162-.176 2.545.573 3.77.813 1.162.862-.92 2.508-1.633 3.35-2.555 2.368-6.384 2.758-9.64 1.894-1.458-.11-1.965 2.52-3.384 2.107zm-7.25-1.954c.29-.856.714-2.755 1.562-2.828.926.996 1.58 2.396-.332 2.586-.389.078-.846.426-1.23.241zm4.023-1.433c-1.278-1.31-1.638-3.225-1.324-4.984.18-2.181 1.009-4.232 1.964-6.175-.832-.588-3.127-.589-1.526-2.18 1.987-3.246 5.244-5.54 8.756-6.89.764.11-1.06 1.44-1.202 1.956-1.974 2.757-4.085 5.606-4.861 8.968-.462 2.043-.188 4.24.843 6.071-.094 1.304-1.48 2.431-2.324 3.441l-.137-.048-.191-.16zm4.744-8.364a6.83 6.83 0 0 0-.938-2.864c-.278.575-1.007 2.754-.498 1.056.645-1.8 1.598-3.485 2.652-5.07 1.615-.905 3.599-.782 5.391-.647 3.12.304 6.064 2.435 7.002 5.472-1.055.767-2.591.813-3.845 1.239-.967-.79-1.915-2.628-3.658-2.674-2.061-.397-4.498.411-5.395 2.427-.275.28-.479 1.514-.71 1.06zM39.395 38.22c-1.056-.61-2.36-1.703-.806-2.641 1.208-1.437 2.306-2.986 3.104-4.69 1.192.245 2.394 2.022 4.012 1.879 1.805.202 3.816-.455 4.805-2.056.814-1.023 2.357.298 3.447.346 2.16.244-.178 2.452-.843 3.24-2.637 2.581-6.732 3.056-10.156 2.04-1.148.412-1.832 2.333-3.035 2.221a8.19 8.19 0 0 1-.528-.34zm-6.82-1.753c.45-.796.717-2.694 1.563-2.726.512.893 1.837 2.15.059 2.443-.446.094-1.294.662-1.623.284zM36.496 35c-1.165-1.208-1.443-2.933-1.225-4.54.142-2.327 1.049-4.497 2.026-6.58-1.03-.379-3.097-.59-1.563-2.04 2.023-3.315 5.375-5.724 9.013-6.96-.677 1.204-1.913 2.35-2.68 3.624-1.583 2.426-3.301 4.944-3.784 7.856-.196 1.827-.06 3.73.86 5.362.359 1.264-1.16 2.241-1.8 3.223-.247.347-.579.484-.847.055zm4.88-8.398c.144-1.364-1.541-2.444-.62-3.596.858-1.22 1.197-3.193 2.864-3.537 1.69-.375 3.465-.254 5.17-.065 2.772.529 5.234 2.59 6.152 5.268-.99.85-2.738.929-4.04 1.32-.731-1.443-2.118-2.63-3.808-2.748-2.075-.324-4.339.69-5.164 2.693-.225.1-.383 1.463-.553.664zm18.72 24.827c-1.056-.61-2.36-1.704-.806-2.643 1.21-1.435 2.309-2.985 3.106-4.688 1.193.243 2.394 2.02 4.012 1.877 1.805.203 3.817-.453 4.806-2.054.812-1.023 2.355.297 3.446.346 2.159.242-.178 2.45-.844 3.239-2.637 2.58-6.732 3.054-10.156 2.038-1.148.412-1.832 2.334-3.034 2.222a8.19 8.19 0 0 1-.529-.341zm-6.82-1.754c.45-.796.718-2.694 1.564-2.726.512.891 1.838 2.148.06 2.441-.446.096-1.294.663-1.623.286zm3.923-1.468c-1.165-1.208-1.444-2.932-1.226-4.539.142-2.328 1.05-4.498 2.027-6.581-1.029-.38-3.096-.591-1.563-2.042 2.023-3.315 5.375-5.723 9.013-6.96-.676 1.204-1.913 2.351-2.68 3.624-1.582 2.426-3.3 4.944-3.783 7.857-.197 1.826-.061 3.73.859 5.36.36 1.264-1.16 2.242-1.8 3.224-.246.346-.578.483-.846.054zm4.847-8.47c-.045-1.465-1.588-2.768-.287-4.074.743-1.318 1.382-3.117 3.187-3.127 2.556-.203 5.359-.236 7.545 1.316 1.42.98 2.607 2.376 3.152 4.028-.99.852-2.737.93-4.04 1.321-.707-1.316-1.91-2.492-3.477-2.714-2.045-.39-4.395.404-5.33 2.373-.202.135-.55 1.636-.75.879zM81.32 64.918c-.776-.644-3.097-1.573-1.629-2.67 1.428-1.537 2.532-3.344 3.53-5.168 1.23 1.056 2.646 2.18 4.372 2.073 1.816.093 3.647-.855 4.56-2.437 1.248-.088 2.57.612 3.833.878.794 1.034-1.186 2.543-1.913 3.395-2.665 2.328-6.57 2.647-9.857 1.66-1.025.505-1.782 2.375-2.894 2.267zm-7.373-2.089c.454-.843.715-2.553 1.544-2.77.863 1.06 1.651 2.377-.292 2.6-.358.049-.967.499-1.251.17zm3.93-1.487c-1.021-1.105-1.373-2.606-1.233-4.075.02-2.467.985-4.773 2.011-6.969-.805-.612-3.119-.496-1.595-2.037 2.027-3.327 5.363-5.696 8.974-7.035-.154.807-1.501 1.872-2.046 2.833-1.828 2.635-3.738 5.4-4.341 8.611-.262 1.878-.016 3.833.909 5.508.103 1.306-1.344 2.356-2.103 3.346-.193.322-.446-.083-.576-.183zm4.976-8.252c.142-1.296-1.282-2.411-.82-3.554.867-1.159 1.156-2.985 2.572-3.582 1.93-.564 4.026-.498 5.977-.089 2.55.626 4.82 2.554 5.674 5.053-.704 1.028-2.744.934-3.986 1.442-.624-1.185-1.59-2.267-2.952-2.605-2.23-.744-5.015.182-5.97 2.43-.166.3-.29.627-.495.905zm19.274 25.178c-.777-.644-3.098-1.573-1.63-2.67 1.427-1.537 2.53-3.344 3.53-5.168 1.228 1.057 2.645 2.181 4.371 2.074 1.816.093 3.647-.855 4.56-2.437 1.248-.088 2.57.612 3.833.878.795 1.034-1.185 2.544-1.912 3.395-2.665 2.33-6.57 2.648-9.857 1.661-1.024.504-1.781 2.374-2.893 2.266zm-7.374-2.089c.454-.843.714-2.553 1.544-2.77.862 1.06 1.65 2.377-.293 2.6-.358.049-.967.499-1.251.17zm3.93-1.487c-1.021-1.106-1.373-2.607-1.234-4.076.02-2.466.985-4.773 2.011-6.969-.804-.612-3.118-.496-1.594-2.037 2.017-3.336 5.37-5.66 8.954-7.043-.32 1.02-1.54 1.976-2.156 3.02-1.774 2.585-3.628 5.295-4.211 8.433-.262 1.88-.016 3.834.909 5.51.103 1.305-1.344 2.355-2.103 3.346-.194.322-.447-.084-.577-.184zm4.979-8.286c.122-1.281-1.285-2.388-.822-3.52.866-1.16 1.155-2.986 2.571-3.583 1.93-.563 4.027-.497 5.978-.087 2.55.625 4.82 2.553 5.674 5.052-.704 1.028-2.744.934-3.986 1.443-.623-1.158-1.548-2.25-2.887-2.595-2.295-.779-5.182.213-6.108 2.553-.136.248-.26.503-.42.738zm18.714 24.794c-1.406-.66-1.997-1.903-.527-2.888 1.162-1.384 2.12-2.925 2.943-4.53 1.28 1.025 2.697 2.172 4.458 2.053 1.797.069 3.637-.847 4.514-2.442 1.276.079 3.211.443 4.148 1.27-1.395 3.225-4.9 5.252-8.378 5.15-1.29.098-2.539-.264-3.793-.458-1.098.506-1.86 2.915-3.22 1.944zm-6.815-1.678c.47-.86.666-2.472 1.553-2.76.54.918 1.83 2.18.021 2.426-.442.088-1.185.612-1.573.334zm3.837-1.661c-1.526-1.639-1.2-4.022-.887-6.042.28-1.76 1.169-3.327 1.763-4.98-.467-.47-2.707-.236-1.972-1.236 1.946-3.692 5.515-6.233 9.342-7.697-.475 1.065-1.696 2.136-2.378 3.247-1.71 2.558-3.514 5.236-4.035 8.325-.243 1.857.06 3.796.957 5.45-.15 1.255-1.3 2.364-2.183 3.287-.24.304-.446-.255-.606-.355zm5.016-8.5c-.169-.946-.53-1.838-.984-2.681A40.31 40.31 0 0 1 125.527 73c1.431-.929 3.288-.768 4.926-.732 3.23.13 6.377 2.253 7.41 5.36-.807.908-2.534.865-3.723 1.296-.91-.33-1.358-2.158-2.726-2.372-2.281-.942-5.34-.19-6.412 2.182-.138.067-.539 1.445-.59.627zm18.682 24.76c-.956-.604-2.221-1.603-.78-2.5 1.256-1.472 2.387-3.089 3.187-4.844 1.192.696 2.34 2.034 3.938 2.006 1.982.229 4.084-.652 5.109-2.403 1.274-.082 2.604.615 3.87.921.452 1.203-1.413 2.64-2.304 3.546-2.657 2.12-6.375 2.322-9.545 1.426-1.146.44-1.849 2.806-3.193 2.036l-.14-.09zm-6.742-1.614c.38-.856.646-2.469 1.485-2.745.453.813 1.867 1.998.2 2.295-.514.148-1.167.595-1.685.45zm3.976-1.486c-1.07-1.159-1.48-2.735-1.316-4.28.131-2.35.944-4.59 1.979-6.682-.17-.92-3.193-.438-1.6-2.073 1.985-3.385 5.375-5.75 8.997-7.11-.732 1.283-2.038 2.596-2.897 3.96-1.58 2.554-3.436 5.22-3.57 8.322-.054 1.533.109 3.105.878 4.463.463 1.347-1.276 2.413-1.943 3.48-.126.32-.417.037-.528-.08zm4.823-8.898c-.303-1.462-1.516-2.8-.096-4.101.609-1.522 1.7-2.872 3.501-2.775 2.443-.17 5.059.016 7.111 1.495 1.34.939 2.434 2.29 2.947 3.852-.866.907-2.67.846-3.89 1.35-.658-.86-1.332-2.08-2.55-2.447-1.28-.522-2.824-.46-4.115-.014-1.407.523-2.19 1.854-2.815 3.132l-.094-.49zm18.987 24.95c-.96-.603-2.67-1.659-1.099-2.656 1.24-1.438 2.343-3.01 3.154-4.73 1.108.254 2.25 1.847 3.75 1.848 1.966.292 4.22-.474 5.219-2.276 1.266-.258 3.12.4 4.197 1.082-1.346 3.374-5.125 5.366-8.677 5.16-1.508.225-3.396-1.214-4.435.453-.624.412-1.297 1.894-2.108 1.12zm-6.977-1.838c.307-.782.695-2.826 1.493-2.606.38.75 1.733 1.895.14 2.174-.486.107-1.175.617-1.633.432zm3.82-1.586c-1.438-1.525-1.388-3.736-1.028-5.66.217-1.926 1.155-3.638 1.854-5.406-.941-.403-3.026-.52-1.59-1.959 2.002-3.268 5.29-5.678 8.878-6.915-.492.916-1.387 1.72-1.976 2.637-1.83 2.638-3.743 5.395-4.387 8.594-.26 1.947-.07 4.013.94 5.736-.12 1.173-1.295 2.181-2.037 3.12-.194.315-.509.047-.655-.148zm4.941-8.643c.005-.988-.842-1.899-.906-2.762.699-1.222 1.262-2.553 2.157-3.64 1.953-.881 4.224-.747 6.288-.369 2.693.582 5.065 2.58 5.91 5.225-1.164.648-2.724.957-4.07 1.168-.744-1.879-2.838-2.95-4.813-2.737-1.988-.04-3.64 1.438-4.376 3.193-.2.39-.12.163-.19-.078zm19.353 25.153c-1.101-.648-3.155-1.881-1.303-3.032 1.174-1.387 2.251-2.894 2.99-4.561 1.1.372 2.387 1.957 3.956 1.905 1.904.17 4.096-.562 5.03-2.343 1.272-.27 2.997.492 4.184 1.067-.64 1.806-2.22 3.19-3.85 4.137-2.07 1.137-4.539 1.152-6.818.86-1.48-.826-2.42.614-3.366 1.534-.247.13-.482.7-.823.434zm-7.28-1.991c.007-.902.779-1.96 1.105-2.84.567.585 2.094 2.095.416 2.348-.492.19-.99.445-1.52.492zm3.7-1.74c-1.18-1.314-1.308-3.138-1.049-4.804.154-2.071.94-4.006 1.875-5.837.258-1.125-3.177-.415-1.653-2.04 1.922-3.433 5.339-5.787 8.942-7.185-.484 1.114-1.848 2.264-2.534 3.478-1.822 2.811-3.9 5.802-3.921 9.29-.056 1.505.419 2.958 1.079 4.29-.36 1.202-1.342 2.492-2.354 3.188-.166-.084-.27-.24-.384-.379zm4.97-8.782c.145-1.003-1.198-1.863-.77-2.721.664-1.14 1.177-2.4 2.046-3.399 1.655-.912 3.654-.675 5.47-.562 2.71.346 5.237 2.029 6.379 4.546 1.031 1.634-1.99 1.325-2.896 1.865-1.396.46-1.526-2.038-3.03-2.182-2.323-1.1-5.533-.315-6.65 2.126-.273.282-.453 1.442-.55.325zm19.392 25.176c-.96-.637-3.153-1.739-1.48-2.872 1.332-1.458 2.33-3.18 3.294-4.886 1.384 1.429 3.393 2.428 5.42 1.986 1.769.02 2.708-1.795 3.924-2.417 1.147.456 2.835.433 3.638 1.292-1.412 3.228-4.99 5.29-8.488 5.052-1.376.383-2.978-.93-4.115-.006-.743.53-1.32 1.722-2.195 1.853zm-7.415-2.118c.453-.67.74-2.832 1.546-2.448.608.804 1.498 1.884-.045 2.111-.437.105-1.085.568-1.5.337zm3.794-1.636c-1.522-1.68-1.217-4.107-.854-6.156.317-1.69 1.1-3.231 1.79-4.786-.684-.578-3.057-.362-1.727-1.79 1.989-3.34 5.28-5.784 8.904-7.088-.913 1.429-2.13 2.67-3.013 4.133-1.933 2.977-3.988 6.406-3.326 10.108.161 1.055.615 2.025 1.073 2.977-.742 1.05-1.394 2.22-2.43 3.007-.177-.092-.294-.257-.418-.406zm4.895-9.097c-.459-1.287-1.18-2.485.002-3.65.58-1.506 1.681-2.827 3.43-2.742 2.987-.342 6.37.23 8.423 2.619.467.782 2.341 2.383 1.197 3.06-1.31.065-3.436 1.82-4.032 0-1.93-2.724-6.762-2.513-8.3.522-.296.477-.588 1.416-.72.188zm19.303 25.09c-.964-.645-3.032-1.735-1.349-2.828 1.287-1.435 2.35-3.07 3.19-4.804 1.19.966 2.512 2.085 4.176 2.04 1.833.098 3.89-.716 4.753-2.418 1.312-.122 2.702.554 3.972.947.123 1.32-1.51 2.547-2.439 3.477-2.525 1.946-5.96 2.231-8.97 1.453-1.438-.354-2.016 2.296-3.335 2.134zm-7.324-2.016c.466-.77.685-2.384 1.431-2.63.518.81 1.716 2.038.08 2.265-.464.11-1.053.531-1.51.364zm3.703-1.809c-1.488-1.794-1.04-4.277-.646-6.378.265-1.548 1.088-2.912 1.676-4.338-.523-.788-3.1-.35-1.712-1.86 1.943-3.376 5.315-5.72 8.89-7.103-1.25 1.833-2.797 3.483-3.847 5.46-1.47 2.326-2.806 4.95-2.605 7.786-.359 1.62 1.408 3.108.802 4.517-.63.557-1.755 3.412-2.557 1.915zm5.02-8.858c-.152-.773-.519-1.476-.857-2.18.64-1.188 1.25-2.408 2.005-3.522 1.208-.966 2.906-.777 4.367-.807 2.653-.033 5.31 1.138 6.855 3.317.741.903 1.798 2.702-.217 2.624-1.067.063-2.722 1.441-3.094-.162-1.88-2.76-6.679-2.623-8.325.32-.35.393-.61 1.81-.733.41zm18.987 24.871c-1.052-.607-2.62-1.703-.932-2.69 1.311-1.375 2.204-3.075 3.175-4.687 1.2 1.194 2.785 2.13 4.536 2.033 1.587-.007 3.159-.711 4.1-2.015.619-1.128 2.076.112 3.075.164 1.256.045 1.519.934.602 1.705-1.309 2.019-3.5 3.416-5.878 3.795-1.83.384-3.693.075-5.49-.308-1.2.308-1.839 2.768-3.188 2.004zm-6.95-1.902c.485-.55.727-2.801 1.422-2.387.355.746 1.727 1.798.166 2.031-.39.049-1.428.804-1.588.356zm3.95-1.359c-1.203-1.225-1.502-3.008-1.254-4.654.133-2.12.852-4.12 1.823-5.995.749-1.438-3.228-.522-1.537-2.24.443-.897 1.124-1.682 1.77-2.446.774-.861 1.716-1.61 2.668-2.31 1.019-.666 2.11-1.342 3.188-1.806.203-.13 1.554-.882 1.055-.28-1.255 1.58-2.56 3.209-3.568 4.984-1.608 2.473-3.035 5.348-2.666 8.398-.17 1.394 1.07 2.647.888 3.884-.615.611-1.46 2.78-2.368 2.465zm4.788-8.841c.06-1.073-1.215-2.176-.634-3.09.318-.423.436-.99.795-1.36.298-.656.62-1.002.773-1.48.572-.645 1.563-.81 2.444-.88 1.586-.022 3.324-.12 4.782.355.51.102 1.129.49 1.575.635.636.383 1.156.718 1.674 1.301.84.873 1.775 1.947 1.893 3.16-1.21.481-2.525.77-3.792 1.077-.693-1.316-1.893-2.438-3.416-2.702-2.177-.446-4.703.455-5.644 2.58-.169.131-.444 1.29-.448.406zm18.987 24.87c-1.447-.653-2.342-1.89-.713-2.922 1.192-1.338 2.037-2.932 2.955-4.454 1.196 1.188 2.77 2.13 4.514 2.04 1.746-.048 3.612-.888 4.4-2.523 1.272.134 2.484.593 3.706.945.542 1.083-1.173 2.448-1.977 3.301-2.575 2.213-6.305 2.488-9.478 1.634-1.347-.023-1.869 2.5-3.23 2.09l-.178-.11zm-6.93-1.88c.357-.632.802-2.662 1.375-2.444 1.036 1.124 1.236 2.095-.528 2.353-.226.016-.764.412-.848.091zm3.929-1.38c-1.157-1.19-1.508-2.907-1.27-4.51.137-2.245.934-4.38 1.934-6.372.08-1.115-3.226-.405-1.603-2.041 1.893-3.29 5.16-5.587 8.63-6.978-.651 1.205-1.695 2.241-2.44 3.425-1.686 2.56-3.533 5.264-3.79 8.402-.106 1.71.112 3.475.982 4.978-.082 1.23-1.332 2.457-2.255 3.253l-.189-.157zm4.714-9.358c-.573-1.262-1.042-2.518.078-3.656.594-1.404 1.61-2.708 3.295-2.603 2.85-.3 6.07.123 8.136 2.3.774.856 1.972 2.048 1.766 3.187-1.239.317-2.558.9-3.787.935-.862-2.036-3.215-3.036-5.327-2.672-1.7.178-3.144 1.385-3.823 2.925-.214.55-.264-.325-.338-.417zm18.823 24.72c-.83-.585-2.344-1.448-.892-2.314 1.302-1.474 2.378-3.14 3.246-4.902 1.25 1.196 2.844 2.16 4.64 2.06 1.708-.036 3.442-.875 4.32-2.379 1.234-.188 2.725.561 3.973.938-.392 1.426-1.601 2.62-2.774 3.518-2.412 1.75-5.615 1.976-8.445 1.335-1.516-.59-2.13 1.6-3.306 2.18-.275-.108-.516-.279-.762-.435zm-6.766-1.735c.434-.64 1.006-3.55 1.702-1.855 1.618 1.379-.692 1.75-1.7 1.855zm3.762-1.603c-1.628-1.884-1.164-4.547-.668-6.767.315-1.439 1.058-2.728 1.594-4.077-.43-.847-3.035-.306-1.713-1.794 1.924-3.274 5.173-5.624 8.67-7.01-2.197 2.923-4.467 5.89-5.757 9.351-.914 2.497-.721 5.39.58 7.716-.66 1.048-1.346 2.149-2.28 2.963-.222.03-.273-.317-.426-.383zm4.878-9.159c-.53-1.223-1.05-2.477.107-3.527.49-.929.998-2.371 2.14-2.445 3.437-.862 7.578-.162 9.874 2.741.61.805 2.194 2.727.236 2.751-1.243.18-2.985 1.475-3.44-.363-2.065-2.48-6.649-2.266-8.235.634-.354.424-.464 1.496-.68.211zm19.03 24.847c-1.096-.664-2.543-1.646-.919-2.652 1.229-1.417 2.28-2.987 3.067-4.69 1.216 1.133 2.743 2.164 4.486 2.029 1.807.107 3.64-.89 4.555-2.443 1.221.24 3.14.403 3.848 1.26-1.406 3.137-4.851 5.015-8.23 4.946-1.3.089-2.57-.306-3.83-.466-.947.446-1.903 2.862-2.976 2.017zm-6.972-1.85c.482-.757 1.039-3.69 1.85-1.643 1.457 1.13-1.156 1.588-1.85 1.642zm3.705-1.69c-1.607-1.946-1.067-4.646-.545-6.885.142-1.458 1.576-2.856 1.375-4.2-.834-.26-2.735-.277-1.535-1.502 1.931-3.136 4.985-5.61 8.46-6.81-.837 1.27-1.891 2.437-2.693 3.755-1.689 2.716-3.615 5.642-3.43 8.976-.181 1.56.827 2.97.967 4.382-.578.585-1.737 3.507-2.599 2.284zm5.093-8.68c-.479-1.364-1.345-2.734-.066-3.95.6-1.221 1.306-2.602 2.877-2.576 3.17-.534 6.82.126 8.969 2.703.897.923 2.397 3.082.062 3.019-1.201.319-2.703 1.173-3.149-.517-2.165-2.532-6.992-2.125-8.358 1.044-.073.08-.193.476-.336.277zm19.425 25.049c-.677-.42-1.4-.855-1.905-1.51-.814-.36.849-1.22 1.003-1.79.882-1.127 1.717-2.32 2.362-3.59.452-1.481 1.645 1.115 2.74 1.044 1.193.49 2.58.39 3.798.21.79-.45 2.242-1.125 2.724-2.247 1.228-.113 2.44.59 3.679.824.665.882-1.228 2.33-1.858 3.12-.734.68-1.356.93-2.225 1.41-2.055.898-4.415.934-6.58.485-1.153-.721-2.048.733-2.852 1.466-.332.043-.535.915-.884.578zm-7.367-2.11c.476-.43.643-2.236 1.331-2.37.4.704 1.577 1.762.325 1.945-.43.25-1.227.547-1.657.425zm3.735-1.596c-.942-1.132-1.22-2.599-1.035-4.03.024-1.216.323-2.43.664-3.547.382-.913.68-1.893 1.193-2.702.82-1.17-1.23-.998-1.931-1.388 0-.75 1-1.716 1.44-2.456.85-1.086 1.834-2.152 3.028-2.842.579-.709 1.894-1.288 2.553-1.716.54-.198 1.39-.769 1.832-.719-.529.571-1.036 1.37-1.492 1.987-.733.902-1.392 1.961-2.032 2.967-.633 1.105-1.376 2.324-1.851 3.57-1.079 2.508-1.133 5.56.187 7.987.013 1.278-1.294 2.397-2.15 3.297-.173-.093-.286-.258-.406-.407zm5.014-8.812c-.24-.728-.217-1.44-.674-1.868-.295-.777.37-1.24.627-1.925.634-.792.805-2.116 1.938-2.394.974-.289 2.048-.413 3.133-.379 1.038-.03 2.1.16 3.026.427 1.046.28 1.62.71 2.544 1.217.705.667 1.53 1.478 2.047 2.283.779.868.61 1.96-.648 1.874-.784.248-1.66.451-2.21.584-.847.127-.731-1.515-1.719-1.692-.862-.772-1.996-1.01-3.166-1.018-1.545-.01-3.176.611-4.056 1.932-.302-.107-.474 1.57-.842.962zm19.437 25.033c-.752-.382-1.422-1.012-2.007-1.491-.312-.827 1.22-1.477 1.533-2.353.903-1.127 1.565-2.423 2.298-3.646 1.24 1.42 3.129 2.21 5.014 2.006 1.073-.023 2.002-.476 2.85-1.173.733-1.034 1.59-1.624 2.834-.902.987.271 2.902.412 1.624 1.72-.543.916-1.396 1.61-2.128 2.3-1.478 1.052-3.33 1.777-5.211 1.762-1.43.143-2.823-.245-4.205-.446-.95.54-1.693 2.09-2.604 2.225zm-7.266-2.21c.368-.672.984-3.413 1.638-1.537 1.674 1.138-1.092 1.727-1.638 1.537zm3.937-1.135c-1.115-1.134-1.53-2.75-1.34-4.305.042-2.336.92-4.602 1.963-6.613.389-1.306-3.143-.398-1.713-1.914 1.074-1.73 2.38-3.392 4.134-4.478.824-.863 2.11-1.466 3.237-2 .648-.385 1.432-.633.592.272-1.045 1.369-2.067 2.728-2.947 4.203-1.421 2.351-2.843 4.98-2.645 7.83-.083 1.46.492 2.812 1.057 4.116-.58 1.015-1.336 2.34-2.336 2.889zm4.76-9.244a9.668 9.668 0 0 0-.903-2.293c.784-1.114 1.235-2.441 2.1-3.495 1.764-.852 3.826-.73 5.728-.524 1.136.234 2.197.68 3.13 1.24a7.613 7.613 0 0 1 2.784 3.069c1.024 1.69-1.886 1.242-2.776 1.797-1.276.543-1.037-1.555-2.25-1.744-.922-.75-2.29-.915-3.523-.85-1.443.143-3.038.96-3.724 2.17-.146.118-.417 1.272-.566.631zm19.48 25.086c-.08-.395-.795-.24-.914-.661-.24-.025-1.379-1.233-1.026-.823.514.707-.415-.586-.29-.357.258-.293.947-.763 1.202-1.405.782-.684.647-.816 1.317-1.758.51-.581.903-1.633 1.258-2.063.18-.615.044.311.337-.392-.019.332.632.7 1.236 1.056 1.327.882 3.115 1.279 4.625.724.904-.198 1.784-.782 2.469-1.478-.229.727.325-.762.41-.35.018-.824.95-.17 1.718-.168.427.547 2.533.388 2.099.957-.31.79-.444.9-.778 1.39-.123.358-.22-.034-.505.645-.921.353.463-.113-.442.448-.272.107-.881.793-1.235.945-.422.174-.695.365-1.033.535-.35.23-1.255.515-1.462.543-1.17.251-2.6.57-3.753.275-.786-.036-1.523-.089-2.16-.44.39.19-1.378.013-1.258.767-.707.591-.794.558-1.107 1.168-.629-.15-.172.67-.707.441zm-7.107-2.162c-.387-.066.238-.799.338-1.354.16-.54.623-.638.458-.84-.096-.64.776.913.832.953-.155.128.343.152.267.532.132-.17-.497.372-.853.277-.186.358-.697.232-1.041.432zm3.84-1.26c-.331-.328-.85-.97-.877-1.128-.61-.855-.512-1.908-.54-2.97.16-.931-.036-1.813.407-2.662-.046-.718.44-1.25.428-1.73.42-.844.667-1.477 1.036-2.217.86-.683-.94-1.063-.84-1.032-.484-.123-1.58-.494-.73-1.116.126-.235.823-1.239.962-1.45.62-.568.393-.826 1.102-1.105.283-.75 1.2-1.243 1.642-1.601.391-.552 1.265-.86 1.823-1.378.53-.32 1.664-.61 1.529-.82.361-.037.895-.072.59-.23.588-.458.79-.047.294.038.016.837-1.01 1.165-1.183 1.908-.48.687-1.172 1.439-1.478 2.077-.457.523-.4.84-1.02 1.318-.117 1.031-1.135 1.936-1.272 2.995-.345.683-.455 1.214-.59 1.903-.354 1.448-.236 3.081.206 4.54.039.945.918 1.337.512 1.975.31.432-.955 1.05-.92 1.514-.365.405-.784.985-1.078 1.17zm4.656-9.217c-.14-.865-.704-1.697-.804-2.44.448-.468.76-1.342.99-1.642.26-.49.338-.752.654-1.236.442-.922 1.582-.745 2.42-1.037a15.79 15.79 0 0 1 3.66.073c.546.266 1.625.26 1.692.603.801.04 1.082.604 1.346.629.372.081 1.67 1.1 1.656 1.817.4-.714.603.657.76.39.215.354.644 1.048.478 1.588.574.279-1.151.508-1.448.692-.345.034-.93.217-1.446.386-.616.164-.865-.511-.849-.542-.479-.592-1.152-1.176-1.33-1.474-.456 0-1.04-.494-1.2-.343-.962-.48-2.252-.602-3.29-.125-.38.09-.939.273-1.4.675-.545.072-1.237 1.154-1.253 1.092-.235.508-.48.39-.195.561-.315.075-.218.969-.443.331zm19.49 25.104c.383-.44-1.343-.459-.924-.895-.96-.048-1.672-1.32-.988-1.103.199-.205.17-.778.786-.746.175-.878 1.152-1.7 1.48-2.142-.098.145.472-1.077.775-1.475.3-.564.58-1.308.558-.72.266-.821.043.105.4-.044.636.567.112.716.993.73.04.136.964.947.531.267.934.436.417.455 1.409.596 1.16.337 2.493-.157 3.524-.037-1.418-.244 1.095-.543.955-.996.553.012 1.264-1.172.31-.18.66-.614.64-1.179 1.681-1.074.93.166 1.207.282 2.056.66.265-.115 1.391.242.917.37.137-.428-.656-.171-.06.095-.187.61-.505.961-.674 1.203-.18.3-.454.764-1.009 1.17-.384.265-1.125 1.027-1.225.894-.257-.17.198.475-.305-.002.369.433-.842.39-.438.548-.546.169-1.312.65-1.734.623-.954.288-2.362.478-3.511.403-.7-.125-1.501-.36-1.868-.334-.242.243-.724-.55-.397-.008-1.096-.503-1.346.602-2.028 1.112-.284.088-.545.774-.974.733.197.127-.025.538-.24.351zm-7.118-2.19c-.398-.179.201-.738.301-1.063.008-.407.442-1.151.596-.918-.194-.66.04-.261.273.219.19-.522.358 1.72.188 1.218-.652.228-.927.221-1.358.542zm3.904-1.32c-.073-.006-1.117-.878-.77-.91-.43-.563-.6-.946-.675-1.686-.063-1.396.013-2.412.18-3.642.333-.608.15-1.385.668-1.903-.386-.038.61-1.006.375-1.342.276-.118.756-.596.577-.768-.027-.19.566-.973-.091-1.277-.664-.17-.49-.117-1.386-.33-.398-.332-.505-.599-.074-.869.016-.116.867-1.247.829-1.365.61-.581.642-.848.886-.932.25-.216.945-1.59 1.688-1.278.11-.202-.566-.266.173-.618-.945.902 1.572-1.272.844-.588.487-.166.9-.262.931-.515.414.084.045-.57.91-.647.422-.026 1.818-.668.586-.344.496-.283 1.166-.13.817-.358.585-.458.794-.046.293.037.16.586-.887.708-.3.761-.472.392-.638.642-.816.895-.348.52-.88 1.496-1.16 1.462.09.25-.294.548-.457.97-.321.476-.505.654-.766 1.322-.272-.254-.613 1.424-1.102 1.856-.36 1.027-.636 1.325-.692 2.124-.286.254-.23.38-.273 1.033-.39 1.463-.11 3.023.23 4.467.067.441.384.802.47 1.108.703.26-.427 1.048.137.833-.332.573-.873.973-1.098 1.459-.34.354-.453.601-1.06 1.204-.112.074.132-.15.126-.163zm4.593-9.147c-.453-.56.257-1.26-.236-1.163.005.495-.384-1.062.124-.829-.437-.447-.544.326-.706-.303-.062-.424 1.105-1.497 1.026-1.917.247-.456 1.153-2.119.556-.66.245-.378.723-1.504 1.216-1.13.704-.198 1.054-.292 1.786-.393.01.03 1.92-.144 2.037.074.96.051 1.23.039 2.104.307.753.202.813.478 1.613.614-.82-.05.555.276.867.6-1.344-.578.895.4.375.404.587.832.853.47.852 1.207.378-.664.34.124.552.15.577.343.218.75.581.999.37.112-.343 1.118.364.812-.568.408-.977.394-1.3.43-.146.152-.59.281-1.183.433-.915.574-1.702-.246-2.22-1.13.253-.506.002-.7-.27-.281-.3-.362-.584-.474-1.217-.712-.218-.077-.262-.361-.227-.116-.984-.23-2.222-.583-3.276-.115-.666-.025-.692.37-1.31.524-.31.33-.604.173-.907.694-.435.493-.829.896-.983 1.446-.194.133.118.616-.218.06zm19.47 24.992c.297-.24-1.184-.353-.893-.662.075-.013-1.425-.8-.945-.947-.767.133.109-.307.084-.509.38-.56.948-.93 1.284-1.726.224-.294-.09.497.347-.331.366-.608.578-.325.548-.976.624-.492 1.057-1.801 1.488-2.03-.185.275.873.396.65.888.028-.336.978.316 1.083.592-.048-.55.967.361.702.064.91.434 2.622.447 3.467.075.552.235 1.04-.123.158.061.7-.453 1.645-.778 2.09-1.28-.67.259.531-.14.312-.527.625-.775 1.887-.254 2.794.08.633.35 1.422.036 1.175.88-.472.62-.448.88-1.06 1.543-.234.156-.36.497-.78.742-.232.385-.439-.413-.39.338-.293.03-.716.619-.882.484-.494.612-1.31.775-2.203 1.124-.43-.105-1.066.334-1.94.32-1.06.026-2.235.103-3.117-.34-.543.147-1.693-.547-2.114.48-.119.13-.978.902-1.307 1.387-.845-.389.238.581-.553.27zm-7.216-2.155c.179-.442.524-1.348.8-1.735.39-.462.08-.252.588.064.2.412.024 1.781.234.548.885.467-.43.969-1.07.84.07.291-.347.442-.552.282zm3.926-1.358c-.434-.018-.411-.688-.804-.746.27-.184-.298-.38-.059-.55-.448-.055-.48-1.367-.523-1.984.08-1.193-.001-2.115.393-3.23.167-1.019.5-1.736.872-2.582-.217-.273.855-.776.499-.903.142-.343.687-1.242-.044-1.37-.678-.477-2.338-.281-1.456-1.324.077.372.706-1.266.984-1.277.448-.705.583-.912 1.21-1.405.296-.5.465-.376.66-.732.507-.164.76-.134.39-.335.686-.517.754-.682 1.435-.972.077-.317.48-.271.574-.326-.097-.41.678-.055.238-.33.51-.57.613.46.565-.332.463-.273 1.67-.514 1.232-.62 1.025-.464.747.128.182.546-.472.535-.581.987-1.063 1.547-.165-.336-.35-.367-.147.184-.213.354-.595.706-.71.96-.19.423-.375.834-.805 1.265-.397.66-.808 1.445-1.174 2.244-.531.76-.716 1.81-1.056 2.562-.218 1.044-.344 2.217-.263 3.33.229.95.2 2.381.797 2.892-.002.486.299.402.305.964-.796.193.337-.027-.399.57-.608.496-.993 1.446-1.428 1.642.067.2-.22.532-.41.312zm4.725-9.112c.34-.94-.758-1.299-.31-1.85.43.104-.296-.763-.333.002-.355-.198.443-1.599.55-1.651.141.353.547-1.398.724-1.171.146-.25.379-.748.625-.946.386-.512 1.452-.332 1.943-.602 1.17-.208 2.45-.089 3.604.107.88-.06 1.88.638 2.422.74.403.554 1.77.818 1.993 1.662.382.122.258.154.416.584.51-.59.154.344.761.54.306.28.043.571.485 1.054-.606.601.683.233-.125.625-.71.185-.915.023-1.265.351-1.14.451-2.19.54-2.797-.478-.674-.322.156-1.418-.575-.67-.16-.458-.835-.402-1.312-.892-1.079-.07-2.388-.563-3.506-.024-.43-.001-.925.237-1.3.605-.498 0-.765.585-1.274.98-.237.183-.38.905-.725 1.033zm19.47 24.992c.453-.184-1.361-.425-.717-.555-.353-.136.206-.437-.36-.15-.693-.207-1.388-1.624-.785-.784.526-.43-.217-.455.222-.782.244.21.132-.4.32-.302.262-.15 1.05-1.905.991-1.106.305-1.109.373-.427.545-.895.15-.556.15.954.336-.036-.505-.308.328-1.193.735-1.599-.02-.528.987-1.462.474-.64.005-.268-1.043 1.657-.15.538.317-.082.822.452.896-.309-.12.708.823.598.064.215.676.087 1.315 1.36 1.293.503.659.887 2.037.42 3 .723-.356.197 1.626.29.375-.083-.166-.223.989-.183 1.265-.278-.384-.022-.646-.075.13-.186.43.361 1.497-.927.325-.229.443-.3.958-.75 1.414-1.074-.197-.562 1.01.111.57-.388-.6-.444 1.022-.428.69.128.738.146.793-.205.106-.198.283-.455.911.418.871.105.313.488 1.01.728 1.262.41.825.243.102 1.613-.268 1.103.05.05.525-.981.126-.696.123.637-1.37-.015-.61.735.768.067.06 1.33-.067 1.28-.217-.21-.207.622-.747.36-.227.604-.79 1.107-.546.189.49-.255.44-.848-.367-.514-.348-.458.322 1.4.043 1.234-.114-.2-1.005 1.083-.918.297-1.259-.29-.12.077-.068.185-.9.913-.728-.222-.816-.432-.482.434-.615.835-.984 1.024-.283.174.503.147-.468.18-.994.367-2.212.267-3.253.181-1.261.058-.648-.732.244-.486.887-.169 1.758.53 2.434-.057.898.432 1.466-1.23.319-.363-1.01-.063-1.841.164-2.834.307-.963-.488-1.644.076-2.455-.467-.874.416.81.13-.17.6.433-.22 1.57-.017 1.472.265-.526-.366-1.648.028-1.806-.15-.097-.352-.13.805-.556.383-.224.702.785-.222-.063.51-.504.507-1.304.88-1.386 1.372l-.124-.068zm-.196-.92c-.13-.54.163-1.074.472-1.354-.68-.495-.19.588-1.024.27-.79-.26-1.056 1.34-.325.97.333-.046.54-.094.981.253l-.105-.138zm-7.017-1.23c-.135-.7.922-.533.434-1.128.186-.197.295-.805.677-.829.424.234.292 1.086.463 1.355-.283-1.002.536-.064.172-.13.692.222-1.655.725-.66.134-.043-.471-.533-.254-.412.312-.346-.318.066.68-.675.285zm4.091-1.524c.04-.715-.644.657-.515-.074-.193-.279-.398-.646-.592-.853.218-.29-.432-.347-.306-1.126.653.054.69-1.023.137-1.753-.274.353.355 2.05-.178 1.223-.29-.76-.047-1.752.372-2.63.024-.633-.015-1.326-.145-.23-.464 1.625-.074-1.05.226-1.553.068-.829.76-1.701.753-2.283.666-.237.486-.76.77-1.416.112-.122-.356-1.122.352-.51-.19 1.476.246-.398.834-.561-.022-.183-.356-.677-.457-.027-.799-.6-1.185.78-2.024-.044.754-.134.578-1.1.12-.278-.831.021.438-1.461-.347-.56.12.376.014 1.319-.08 1.1.12-.98-1.072.202-.295-.84.16.2.755-1.231 1.017-1.372.327.048.458-1.214 1.174-1.217.667.587-.063-.724.629-.72-.45-.182 1.314-.4.508-.472.114-.326 1.045-.256.548-.575.494-.285.294.594.446-.254.22-.027.795-.93 1.035-.355-.149-.751.55-.11.296-.661.416-.293.613.287.203.06.73.432.548.017.292-.254.696-.147.89-.236 1.365-.692.907-.297.51.091.22.594-.204-.05-.174-.86-.554-.13.978-.012-.437 1.144-.624 1.663-.438.401-.118-1.037-.088-.048.615-.986-.907-.356-.16.263.242.48-.794-.073-.254.584-.496-.025-.267.74-.532.39.025.19-.53 1.384-.243.5-.587.487-.18.903-.98 1.619-.645.802-.59-1.462-1.15-.093-.31.663.126.499.206.046.375.326-.24 1.007.49.72-.288.524.06.094-.22.723-.145.607-.631-.75-.479-.008.45.248-.214 1.825-.332 1.241 0 .542-.546.755-.356 1.859-.046.422-.12 2.31-.315 1.289.273-.312-.522-2.51-.183-.739-.06.767-.021 2.715.38 2.254.327.735-.31 1.369.223 1.33.265.734.005.544-.092.056-.107.885.667 1.428.72 1.768.162.254.408.562-.16.854-.061.85-.748.684-.81 1.468-.187.697-.874-.108-.597.579.352-.298-.545.98-.254.147zm.15-7.545c.723-.111-.15-2.793-.084-1.35.7.57-.15 1.65-.208.498-.586-1.255.17 2.134.292.852zm4.406-1.406c.339-.944-.752-1.287-.312-1.854.553-.04-.35-.766-.32-.02-.123-.05-.19-.904.122-.42-.194-.483.556-1.681.43-1.075.375-.413.514-1.726.825-1.039.362-.765-.47-.086.066-.528.253.01.108-.478.372-.48-.088-.4.914-.728 1.183-.475.524-.204 1.307-.507 2.006-.387.728-.225 1.82.322 2.247.227-1.013-.659 1.822.84.33-.088.894.286 1.377.406 2.3.982 1.073.212.65.432 1.505.725.668.81-1.177.678-.004.913.404-.754.786.03.778.101.274.663-.497 1.78.482.946.224-.332.519.453.498-.1.058.532-.005 1.453.511 1.553-.704.52-.978-1.133-.658-.597-.51-.965-.372.836-1.28.32-.809-.344-2.138.576-.918.893.75.017-1.11-.506.036-.45.56.195 2.115.21.644.447-1.034.59-1.577.075-2.142-.625-.63-.677-.334-.838-.015-.268.077.28.305-.024.188.356 1.164.35-.396-.821-.512-1.112-.133.72-.94-.164-.268-.053.742-.2.184-.97-.144-.087-.591-.243-.59.083-1.466-.382-.607-.158-.766-.622-1.407-.276-.706-.058-1.576.05-1.664.219-.37.052-.782-.399-1.433.055-.769.501.117.23.352.013-.029.204.95-.171.11.25-.39.129-.65.509-.956.481-.242.048-.247.581-.512-.181.69-.43-.444-.095.016.334.08.207-.61.226-.32.78-.288.455-.533.433-.574.824.25.036.068.33-.094.079zm7.35-2.91c-.587.631 1.351-.074.335-.241-.533-.414-1.114.105-1.05.515.29.18.425-.308.716-.273zm19.424 24.67c.752-.238.785-1.213.052-.956.705.668-.633.62-.137-.146-.232-.568.922-.892-.065-.993.3.94-1.487-.127-1.263 1.047-.592.21.02-.573-.38-.615.45-.4.252-.718 1-.353-.191-.69-.486-.773.437-.906.09-.592-.178-.76.2-.616.369.406 1.16-.634.595-1.096.763-.105.121-.888.524-.72.668.346-.334-.675.405-.322.053-.88 1.527.303 1.53-.184-.775-.522.651.214.685.542.742.003 1.9.45 3.038.416.35.477 1.83.166.498-.07.23-.15 1.236-.115 1.393-.314.038-.174.703.1.873-.374.4-.189.098-.6.6-.593.547.16.486-.135.65-.72.249.366.936-.27.177-.38.97-.421.703.879 1.613.305.536.42 1.14.607 1.598.519.787.108-.302 1.676-.005.515-.351-.942-.158.58-.99.017-.38.365 1.23 1.463.113.941-.735.153-.284.558.1.335.159.7-.326.28-.537.446-.027.716-.3.356-.624.719-.157.712-.438-.408.112-.613-.456-.047-1.385-.404-.642.422a1.212 1.212 0 0 1-1.724.909c-.845-.017-.326.95-1.369.876-.146-.211.622-1.138-.267-.54-.892.279-1.86-.06-2.682.37-1.059-.21-1.82-.122-2.717-.352-.57-.25-.331.388.09.216-.437.594-.788-.01-1.08.781-.319-.275.122-.813-.62-.18-1.206-.218.876.722-.225 1.155-.1.188-1.017.896-.958.513zm-3.075-3.346c-.398-.597.39-1.27.504-.834.465-1.32-.474-.212-1.178-.372-.106.428 1.207-.12.218.369.126.935-.756-.6-.804-.567-.237.27-.015-1.187.31-.797-.298 1.281.384-.352-.001-.915-.087-.534-.311-1.537-.423-.404-.13-.817.37-1.8.437-2.553-.006-.533-.234-1.19.194-1.233.254-.535.335-1.614.565-.393.56 1.638.731-2.473.769-.552-.242.976.378 2.285.164 2.547-.46-.906.504 1.351-.077.406-.149.603-.03 1.36.253.411.423.414.266 1.692.802 1.976.366.52.326.553-.006.274-.072.242.398.67.03.455-.333-.035-.059 1.027-.691.682-.234.575-.417 1.176-.604 1.036-.392-.388-.516 1.108-.108.251-.107.174-.492.886-.36.217zm4.75-9.922c.698-1.264-.415-.42-.563-.378.65-.553-.618-1.38-.011-1.615.025.366.613-.965.132-.391.48-.192.364-1.005.832-1.004.385-.026-.122-.447.345-.423.104-.98.968-1.42 1.63-1.15 1.057-.414 2.375-.343 3.531-.203.65.489.49-.397.873.09.268.432.972-.15 1.497.48.855.328 1.211.531 2.083 1.1.947 1.089-.484.326-.504.151-.076.894 1.012.84 1.07.44.479.507.55.167.312.672.463.62-.398 1.476.582.73.333-.47.751 1.029-.06.525.041.777-.498.671-1.114.647-.934-.224-1.165.858-1.845-.227-.299-1.235-1.113.53-.87-.587.829-.414.015-.85-.164-.09-.696-.227-1.51-.419-.414-.467 1.322-.29-.732-1.09-.684-.326-.483-.839-.807.365-.965-.37-.958.356-2.223-.41-3.129.441-.814-.008-1.174 1.041-1.653.97-.015-.725-.235.354-.116.45-.333-.311-.938 1.573-.794.533zm-3.527-.35c-.729-.697 1.06-2.21.896-1.802-.185.416-.165.798-.497.986-.535.14.062.818-.4.815zm-2.324-1.29c-.367-.426 1.81-.421.625-.887.782.596-1.289.325-.206-.432.082-1.233.541-.77.78-.076-.008-1.048 1.116-1.158.41-1.92.24-.07.966.24.761-.325-.455-.58.437-.417.63-.851.406.19 1.082-.282 1.143.425.435-.984-1.867-.355-.488-.853.764-.246-.053-.66.8-.842.704-.217 1.762-.48 2.414-.889-.3.607-.093.95-.598 1.337.244-1.412-.86.467-.288.448.567-.405-.495.669-.58-.32-.134.518.589.855-.214.813.394.24.148.105-.174.772.527-.376-.345.397-.107.331-.584.052-.535.46-1.063.52.158.452-.017 1.524-.407.525-.41-1.054-.931 1.716-.417.231.505.271-.194 1.016.55.76.057.513-1.207.354-1.264.999-.79-.498-1.285.544-2.135.152.01.06-.208.28-.176.087zm20.431 21.34c-.206-.365-1.337.36-.51-.258.256-.436-.062-.921-.005-1.082 1.137-.724.17.85.6 1.5l-.084-.16zm-2.336-2.148c-.403-.724-.856-.35-.713-1.464.144-.772.21.337.334-.174-.097.662.506.81.587 1.276-.79-.52.366.637-.206.362zm2.976-14.123c-.235-.264-1.537-1.19-.411-.727-.017-.53-.65-.703.28-.735.894-.054-.478.62.222 1.152.113.26.514-.28-.101.357l.01-.047zm18.095 19.19c-.363-.68-.991-.44-.556-1.462.347-.384.138.663.713.927.061.232-.425-.013-.002.511.092.152-.3.14-.155.025z" fill="#2acfcf"/></g></svg>